<?xml version="1.0" encoding="UTF-8"?><svg id="Capa_2" xmlns="http://www.w3.org/2000/svg" viewBox="0 0 301.06 280.49"><g id="Capa_1-2"><g><path d="m9.86,267.46h37.94l36.34-109.65c-12.67.08-25.35.16-38.02.24l-36.26,109.41Z"/><path d="m136.44,0h-37.94l-45.11,136.11c12.67-.08,25.35-.16,38.02-.24L136.44,0Z"/><path d="m160.13,206.47c0,11.82-1.55,20.53-4.67,26.12-5.29,9.02-9.95,13.06-17.42,20.53l27.37,27.37c10.26-10.26,20.22-19.9,27.37-32.03,7.15-12.44,8.09-26.44,8.09-40.12v-51.25c-13.58.09-27.16.17-40.74.26v49.13Z"/><path d="m200.87,72.73c0-13.68-.93-27.68-8.09-40.12-7.15-12.13-17.11-21.77-27.37-32.03l-27.37,27.37c7.46,7.46,12.13,11.51,17.42,20.53,3.11,5.6,4.67,14.31,4.67,26.12v60.84c13.58-.09,27.16-.17,40.74-.26v-62.45Z"/><path d="m0,136.45l.14,21.9,45.97-.29,7.27-21.94-53.39.34Z"/><path d="m233.18,56.75l-18.06,13.33,49.37,64.7c-21.21.13-42.41.27-63.62.4v21.9c21.25-.13,42.51-.27,63.76-.4l-48.53,65.4,18.23,13.07,66.73-89.68-67.88-88.72Z"/><path d="m91.41,135.87l-7.27,21.94c25.33-.16,50.66-.32,75.99-.48v-21.9c-22.91.14-45.81.29-68.72.43Z"/></g></g></svg>